<svg xmlns="http://www.w3.org/2000/svg" xmlns:xlink="http://www.w3.org/1999/xlink" width="30" height="30" viewBox="0 0 30 30">
  <defs>
    <clipPath id="clip-path">
      <rect id="Rectangle_49476" data-name="Rectangle 49476" width="30" height="30" transform="translate(925 476)" fill="red"/>
    </clipPath>
    <linearGradient id="linear-gradient" x1="0.5" x2="0.5" y2="1" gradientUnits="objectBoundingBox">
      <stop offset="0" stop-color="#f8f8f8"/>
      <stop offset="1" stop-color="#f0f0f0"/>
    </linearGradient>
    <filter id="Path_169847" x="-0.906" y="2.47" width="29.404" height="22.562" filterUnits="userSpaceOnUse">
      <feOffset dy="1" input="SourceAlpha"/>
      <feGaussianBlur stdDeviation="0.5" result="blur"/>
      <feFlood flood-color="#323a45" flood-opacity="0.149"/>
      <feComposite operator="in" in2="blur"/>
      <feComposite in="SourceGraphic"/>
    </filter>
    <linearGradient id="linear-gradient-2" x1="0.5" y1="-0.07" x2="0.5" y2="1" gradientUnits="objectBoundingBox">
      <stop offset="0" stop-color="#f8f8f8"/>
      <stop offset="1" stop-color="#dcdcdc"/>
    </linearGradient>
    <filter id="Path_163757" x="16.794" y="5.797" width="13.299" height="9.01" filterUnits="userSpaceOnUse">
      <feOffset dy="1" input="SourceAlpha"/>
      <feGaussianBlur stdDeviation="0.5" result="blur-2"/>
      <feFlood flood-opacity="0.2"/>
      <feComposite operator="in" in2="blur-2"/>
      <feComposite in="SourceGraphic"/>
    </filter>
    <filter id="Path_163758" x="5.525" y="7.015" width="12.864" height="13.914" filterUnits="userSpaceOnUse">
      <feOffset dy="1" input="SourceAlpha"/>
      <feGaussianBlur stdDeviation="0.5" result="blur-3"/>
      <feFlood flood-opacity="0.2"/>
      <feComposite operator="in" in2="blur-3"/>
      <feComposite in="SourceGraphic"/>
    </filter>
    <linearGradient id="linear-gradient-3" x1="0.831" x2="0.056" y2="0.82" gradientUnits="objectBoundingBox">
      <stop offset="0" stop-color="#4086e5"/>
      <stop offset="1" stop-color="#2160b5"/>
    </linearGradient>
    <linearGradient id="linear-gradient-4" x1="0.831" y1="0" x2="0.772" y2="1" xlink:href="#linear-gradient-3"/>
  </defs>
  <g id="Mask_Group_1481" data-name="Mask Group 1481" transform="translate(-925 -476)" clip-path="url(#clip-path)">
    <g id="Group_96301" data-name="Group 96301" transform="translate(924.914 476)">
      <rect id="Rectangle_49475" data-name="Rectangle 49475" width="29.699" height="29.699" transform="translate(0)" fill="none"/>
      <g id="Group_87071" data-name="Group 87071" transform="translate(0.678 2.97)">
        <g transform="matrix(1, 0, 0, 1, -0.59, -2.97)" filter="url(#Path_169847)">
          <path id="Path_169847-2" data-name="Path 169847" d="M20595.68,5222.555l-22.586-.051a1.894,1.894,0,0,1-1.895-1.864h0l-.033-15.769v-.026h0a1.877,1.877,0,0,1,1.891-1.852l22.582.05a1.9,1.9,0,0,1,1.9,1.862h0l.033,15.77s0,0,0,0l0,.02h0a1.877,1.877,0,0,1-1.883,1.855Z" transform="translate(-20570.57 -5200.02)" fill="url(#linear-gradient)"/>
        </g>
        <path id="Union_761" data-name="Union 761" d="M0,0H4.39l.022,17.433-2.452,0A1.862,1.862,0,0,1,.029,15.717Z" transform="translate(0 2.105)" fill="url(#linear-gradient-2)"/>
        <g id="Group_87071-2" data-name="Group 87071" transform="translate(6.432 3.327)">
          <g id="Group_96299" data-name="Group 96299" transform="translate(11.269 0)">
            <g transform="matrix(1, 0, 0, 1, -18.29, -6.3)" filter="url(#Path_163757)">
              <path id="Path_163757-2" data-name="Path 163757" d="M1.009.007,9.291.026a1.007,1.007,0,0,1,1.006,1l.009,3.995a1,1,0,0,1-1,1L1.022,6A1.007,1.007,0,0,1,.016,5L.007,1a1,1,0,0,1,1-1Z" transform="translate(18.29 6.29)" fill="#fff"/>
            </g>
            <line id="Line_3001" data-name="Line 3001" x2="7.637" transform="translate(1.349 1.552)" fill="none" stroke="#e4e4e4" stroke-linecap="round" stroke-width="1"/>
            <line id="Line_3002" data-name="Line 3002" x2="4.243" transform="translate(1.349 3.005)" fill="none" stroke="#e4e4e4" stroke-linecap="round" stroke-width="1"/>
          </g>
          <g transform="matrix(1, 0, 0, 1, -7.02, -6.3)" filter="url(#Path_163758)">
            <path id="Path_163758-2" data-name="Path 163758" d="M1.048.007,8.805.027a1.046,1.046,0,0,1,1.045,1.04l.02,8.82A1.035,1.035,0,0,1,8.83,10.922L1.073,10.9A1.046,1.046,0,0,1,.027,9.862l-.02-8.82A1.035,1.035,0,0,1,1.048.007Z" transform="translate(7.02 7.51)" fill="#fff"/>
          </g>
          <path id="Union_449" data-name="Union 449" d="M.011,4.669Zm0-1.556ZM0,1.556ZM0,0Z" transform="translate(1.436 3.684)" fill="none" stroke="#3275cf" stroke-linecap="round" stroke-linejoin="round" stroke-width="2" opacity="0.64"/>
          <path id="Path_163759" data-name="Path 163759" d="M.524,0,4.315.013A.525.525,0,0,1,4.777.27a.517.517,0,0,1-.46.781L.526,1.042A.523.523,0,0,1,0,.522.517.517,0,0,1,.524,0Z" transform="translate(2.458 9.78)" fill="#e4e4e4"/>
        </g>
        <path id="Line_2116" data-name="Line 2116" d="M0,0H26.376" transform="translate(0.002 3.377)" fill="#e4e4e4"/>
        <path id="Path_169848" data-name="Path 169848" d="M20571.164,5208.336v-.026h0a2.338,2.338,0,0,1,.428-1.663,1.627,1.627,0,0,1,1.463-.653l22.582.05a1.75,1.75,0,0,1,1.5.717,2.181,2.181,0,0,1,.4,1.608h0Z" transform="translate(-20571.162 -5205.994)" fill="url(#linear-gradient-3)"/>
        <g id="Group_96300" data-name="Group 96300" transform="translate(17.037 11.533)">
          <g id="Path_169849" data-name="Path 169849" transform="matrix(0.951, 0.309, -0.309, 0.951, 3.348, 0)" fill="url(#linear-gradient-4)">
            <path d="M 5.301490783691406 10.73366832733154 C 5.065170764923096 10.73366832733154 4.859880924224854 10.5662784576416 4.813370704650879 10.33565902709961 L 4.677600860595703 9.663969039916992 L 4.664310932159424 9.598208427429199 L 4.5984206199646 9.585568428039551 C 4.264920711517334 9.521588325500488 3.933860778808594 9.413558959960938 3.614430665969849 9.264468193054199 L 3.553130626678467 9.235858917236328 L 3.503770589828491 9.282118797302246 L 3.013140678405762 9.741808891296387 C 2.921040773391724 9.828868865966797 2.800810813903809 9.876648902893066 2.674270629882812 9.876648902893066 C 2.557690620422363 9.876648902893066 2.444410800933838 9.835168838500977 2.355290651321411 9.759828567504883 L 1.605000734329224 9.126238822937012 C 1.413460731506348 8.964298248291016 1.373460650444031 8.683938980102539 1.512000679969788 8.474128723144531 L 1.885840654373169 7.909768581390381 L 1.922920703887939 7.85378885269165 L 1.885140657424927 7.79827880859375 C 1.694600701332092 7.518338680267334 1.538750648498535 7.220788478851318 1.421920657157898 6.913898468017578 L 1.398220658302307 6.851658821105957 L 1.331660747528076 6.849528789520264 L 0.6623907089233398 6.828118801116943 C 0.4120407104492188 6.820228576660156 0.2067607045173645 6.624968528747559 0.1848407089710236 6.373928546905518 L 0.1015307083725929 5.395238876342773 C 0.08158070594072342 5.144588470458984 0.2519907057285309 4.917758464813232 0.4979707002639771 4.86815881729126 L 1.117410659790039 4.741898536682129 L 1.184550762176514 4.728208541870117 L 1.196030735969543 4.660658836364746 C 1.256430745124817 4.305088520050049 1.361400723457336 3.957318544387817 1.508010745048523 3.626988649368286 L 1.534920692443848 3.566368579864502 L 1.489540696144104 3.517998695373535 L 1.056050658226013 3.055938720703125 C 0.8831406831741333 2.873088598251343 0.8755207061767578 2.590448617935181 1.038060665130615 2.398188591003418 L 1.671840667724609 1.642868638038635 C 1.765960693359375 1.531518697738647 1.90380072593689 1.467498660087585 2.049750804901123 1.467498660087585 C 2.147140741348267 1.467498660087585 2.241880655288696 1.496068596839905 2.323730707168579 1.550108671188354 L 2.81890082359314 1.878678679466248 L 2.876530647277832 1.916928648948669 L 2.932650804519653 1.87648868560791 C 3.246610641479492 1.650278687477112 3.593370676040649 1.467918634414673 3.963290691375732 1.334478616714478 L 4.027090549468994 1.311468601226807 L 4.029310703277588 1.243678689002991 L 4.048340797424316 0.6625186204910278 C 4.056220531463623 0.412068635225296 4.251470565795898 0.2067786455154419 4.502500534057617 0.184868648648262 L 5.481160640716553 0.1015186458826065 C 5.493830680847168 0.1005186438560486 5.506980895996094 0.09999864548444748 5.520090579986572 0.09999864548444748 C 5.756460666656494 0.09999864548444748 5.961750507354736 0.267388641834259 6.008230686187744 0.4980086386203766 L 6.124950885772705 1.069868683815002 L 6.138500690460205 1.136268615722656 L 6.205200672149658 1.148288607597351 C 6.583040714263916 1.216338634490967 6.946200847625732 1.333728671073914 7.284580707550049 1.497188687324524 L 7.346370697021484 1.52703869342804 L 7.396450519561768 1.480128645896912 L 7.810840606689453 1.091898679733276 C 7.902910709381104 1.004818677902222 8.023130416870117 0.9570386409759521 8.149690628051758 0.9570386409759521 C 8.266270637512207 0.9570386409759521 8.37954044342041 0.9985286593437195 8.468630790710449 1.073858618736267 L 9.218940734863281 1.707428693771362 C 9.411900520324707 1.870548605918884 9.450160980224609 2.15143871307373 9.307920455932617 2.360788583755493 L 8.981090545654297 2.852248668670654 L 8.94386100769043 2.908228635787964 L 8.981650352478027 2.963828563690186 C 9.183560371398926 3.260898590087891 9.347170829772949 3.583428621292114 9.467940330505371 3.922468662261963 L 9.490810394287109 3.986688613891602 L 9.558950424194336 3.988858699798584 L 10.15678024291992 4.007928848266602 C 10.40715026855469 4.015808582305908 10.61243057250977 4.211048603057861 10.63432025909424 4.462088584899902 L 10.71770095825195 5.440798759460449 C 10.73759078979492 5.691438674926758 10.56716060638428 5.918278694152832 10.32122039794922 5.967868804931641 L 9.725550651550293 6.089378833770752 L 9.65924072265625 6.102898597717285 L 9.647150993347168 6.169488430023193 C 9.582981109619141 6.522818565368652 9.470271110534668 6.871878623962402 9.312160491943359 7.206978797912598 L 9.283061027526855 7.268658638000488 L 9.329860687255859 7.318268775939941 L 9.765720367431641 7.780318737030029 C 9.938450813293457 7.962958812713623 9.946061134338379 8.245598793029785 9.783520698547363 8.437858581542969 L 9.149971008300781 9.188168525695801 C 9.055630683898926 9.299768447875977 8.917780876159668 9.363799095153809 8.771830558776855 9.363799095153809 C 8.674450874328613 9.363788604736328 8.579730987548828 9.33522891998291 8.497910499572754 9.28118896484375 L 7.957230567932129 8.923928260803223 L 7.901330471038818 8.886988639831543 L 7.845910549163818 8.924638748168945 C 7.54011058807373 9.132378578186035 7.208850860595703 9.299968719482422 6.861330509185791 9.422748565673828 L 6.796910762786865 9.44550895690918 L 6.794690608978271 9.513788223266602 L 6.77332067489624 10.17117881774902 C 6.765380859375 10.42160892486572 6.570120811462402 10.62690830230713 6.319130897521973 10.64880847930908 L 5.340430736541748 10.73214817047119 C 5.327750682830811 10.73315906524658 5.314590930938721 10.73366832733154 5.301490783691406 10.73366832733154 Z M 5.43548059463501 3.348358631134033 C 5.377850532531738 3.348358631134033 5.319370746612549 3.350868701934814 5.261680603027344 3.355798721313477 C 4.723780632019043 3.400628566741943 4.235020637512207 3.653228759765625 3.885640621185303 4.067068576812744 C 3.536260604858398 4.480928421020508 3.369210720062256 5.005188465118408 3.415260791778564 5.543278694152832 C 3.501860618591309 6.582738876342773 4.386390686035156 7.397158622741699 5.428950786590576 7.397158622741699 C 5.486580848693848 7.397158622741699 5.545060634613037 7.394648551940918 5.602750778198242 7.389718532562256 C 6.140640735626221 7.344908714294434 6.629400730133057 7.092318534851074 6.978780746459961 6.678478717803955 C 7.328170776367188 6.264628410339355 7.495210647583008 5.740368843078613 7.449140548706055 5.202278614044189 C 7.362540721893311 4.162798881530762 6.478030681610107 3.348358631134033 5.43548059463501 3.348358631134033 Z" stroke="none"/>
            <path d="M 5.520090579986572 0.1999988555908203 C 5.509600639343262 0.1999988555908203 5.499070644378662 0.200408935546875 5.489640712738037 0.2011585235595703 L 4.511200904846191 0.2844886779785156 C 4.310590744018555 0.3019990921020508 4.154580593109131 0.4658088684082031 4.148280620574951 0.6657981872558594 L 4.124810695648193 1.382518768310547 L 3.997220516204834 1.42853832244873 C 3.636040687561035 1.558828353881836 3.297530651092529 1.736838340759277 2.991110801696777 1.95762825012207 L 2.878870487213135 2.038488388061523 L 2.268640518188477 1.63356876373291 C 2.203170776367188 1.590348243713379 2.127480506896973 1.567498207092285 2.049750328063965 1.567498207092285 C 1.933290481567383 1.567498207092285 1.823290824890137 1.618598937988281 1.748440742492676 1.707148551940918 L 1.114420890808105 2.462748527526855 C 0.9848003387451172 2.61607837677002 0.9908208847045898 2.841428756713867 1.12898063659668 2.987518787384033 L 1.653221130371094 3.546298503875732 L 1.599411010742188 3.667538642883301 C 1.456180572509766 3.990278720855713 1.353631019592285 4.330048561096191 1.294610977172852 4.677408695220947 L 1.271660804748535 4.812508583068848 L 0.5177402496337891 4.966178417205811 C 0.3213310241699219 5.005788803100586 0.1852807998657227 5.187068462371826 0.2011709213256836 5.386758804321289 L 0.2844610214233398 6.365238666534424 C 0.3019809722900391 6.565838813781738 0.4657802581787109 6.721868515014648 0.6655807495117188 6.728168487548828 L 1.46798038482666 6.753838539123535 L 1.51537036895752 6.878318786621094 C 1.629440307617188 7.177928924560547 1.781661033630371 7.468518733978271 1.96781063079834 7.742018699645996 L 2.043370246887207 7.853038787841797 L 1.595450401306152 8.529238700866699 C 1.484810829162598 8.696778297424316 1.516690254211426 8.920628547668457 1.669510841369629 9.04982852935791 L 2.419840812683105 9.68345832824707 C 2.490930557250977 9.743548393249512 2.581290245056152 9.77664852142334 2.674261093139648 9.77664852142334 C 2.775160789489746 9.77664852142334 2.870990753173828 9.738578796386719 2.944770812988281 9.668818473815918 L 3.534130573272705 9.11663818359375 L 3.656720638275146 9.173858642578125 C 3.968690872192383 9.319448471069336 4.291860580444336 9.424928665161133 4.617260932922363 9.487359046936035 L 4.749030590057373 9.512639045715332 L 4.911390781402588 10.31588840484619 C 4.948530673980713 10.50001907348633 5.112590789794922 10.63366889953613 5.301490783691406 10.63366889953613 C 5.311970710754395 10.63366889953613 5.322510719299316 10.63325881958008 5.331940650939941 10.63250827789307 L 6.310440540313721 10.5491886138916 C 6.511000633239746 10.53168869018555 6.667030811309814 10.36784839630127 6.673380851745605 10.16792869567871 L 6.699180603027344 9.373978614807129 L 6.828021049499512 9.328458786010742 C 7.167450904846191 9.208539009094238 7.491010665893555 9.044848442077637 7.789710998535156 8.8419189453125 L 7.90056037902832 8.766618728637695 L 8.553020477294922 9.197748184204102 C 8.618450164794922 9.240959167480469 8.694110870361328 9.263798713684082 8.771821022033691 9.263798713684082 C 8.888290405273438 9.263798713684082 8.998300552368164 9.212688446044922 9.073570251464844 9.123659133911133 L 9.707160949707031 8.373298645019531 C 9.836780548095703 8.219968795776367 9.830760955810547 7.99462890625 9.692980766296387 7.848938941955566 L 9.163520812988281 7.287668704986572 L 9.221720695495605 7.164308547973633 C 9.376111030578613 6.837088584899902 9.486141204833984 6.496378421783447 9.548760414123535 6.151618480682373 L 9.57295036315918 6.018448829650879 L 10.30146026611328 5.869848728179932 C 10.49784088134766 5.830248832702637 10.63390064239502 5.648948669433594 10.61806106567383 5.449288845062256 L 10.53470039367676 4.470768451690674 C 10.5172004699707 4.27017879486084 10.35340118408203 4.114168643951416 10.15359115600586 4.107878684997559 L 9.419490814208984 4.084458827972412 L 9.373741149902344 3.956018447875977 C 9.255821228027344 3.624988555908203 9.096080780029297 3.310088634490967 8.898950576782227 3.020038604736328 L 8.823370933532715 2.908838748931885 L 9.225210189819336 2.304588317871094 C 9.338610649108887 2.137688636779785 9.308150291442871 1.913788795471191 9.154430389404297 1.783838272094727 L 8.404060363769531 1.150218963623047 C 8.333010673522949 1.09013843536377 8.242660522460938 1.057048797607422 8.149690628051758 1.057038307189941 C 8.048800468444824 1.057038307189941 7.952980995178223 1.095108985900879 7.879210472106934 1.164868354797363 L 7.364660739898682 1.646938323974609 L 7.241080760955811 1.587238311767578 C 6.910870552062988 1.427719116210938 6.556380748748779 1.313148498535156 6.187480926513672 1.246698379516602 L 6.054080486297607 1.222678184509277 L 5.910200595855713 0.5177583694458008 C 5.873090744018555 0.3336381912231445 5.709030628204346 0.1999988555908203 5.520090579986572 0.1999988555908203 M 5.428950786590576 7.497158527374268 C 4.334790706634521 7.497158527374268 3.406490802764893 6.642458438873291 3.315630912780762 5.551808834075928 C 3.267290592193604 4.987058639526367 3.442590713500977 4.436858654022217 3.809230804443359 4.002558708190918 C 4.17586088180542 3.568278789520264 4.688820838928223 3.30319881439209 5.253140926361084 3.256168842315674 C 5.313640594482422 3.250988483428955 5.374980926513672 3.248358726501465 5.43548059463501 3.248358726501465 C 6.52962064743042 3.248358726501465 7.457910537719727 4.103078842163086 7.548770904541016 5.193748474121094 C 7.59713077545166 5.758498668670654 7.421840667724609 6.308698654174805 7.055191040039062 6.742988586425781 C 6.688560485839844 7.177268981933594 6.175600528717041 7.442348480224609 5.61129093170166 7.489348411560059 C 5.550810813903809 7.494528770446777 5.489460945129395 7.497158527374268 5.428950786590576 7.497158527374268 M 5.520086288452148 -1.9073486328125e-06 C 5.801217555999756 -1.9073486328125e-06 6.049893856048584 0.1985549926757812 6.106260776519775 0.4782485961914062 L 6.222930908203125 1.049868583679199 C 6.606420516967773 1.118938446044922 6.977990627288818 1.238028526306152 7.328080654144287 1.407148361206055 L 7.742470741271973 1.018918991088867 C 7.961570739746094 0.8117084503173828 8.302220344543457 0.8021888732910156 8.533201217651367 0.9974985122680664 L 9.28346061706543 1.631028175354004 C 9.514511108398438 1.826348304748535 9.562140464782715 2.164578437805176 9.390630722045898 2.416988372802734 L 9.064360618591309 2.907618522644043 C 9.271591186523438 3.212518692016602 9.438281059265137 3.541188716888428 9.562140464782715 3.888908863067627 L 10.1599702835083 3.907978534698486 C 10.46244049072266 3.917498588562012 10.70777034759521 4.153298854827881 10.73394107818604 4.453398704528809 L 10.81734085083008 5.432308673858643 C 10.84116077423096 5.732448577880859 10.63633060455322 6.006348609924316 10.34099102020264 6.065898418426514 L 9.745540618896484 6.187358856201172 C 9.678920745849609 6.554168701171875 9.562180519104004 6.911438941955566 9.40260124206543 7.249648571014404 L 9.838460922241211 7.711698532104492 C 10.0457010269165 7.93082857131958 10.05520057678223 8.271398544311523 9.859890937805176 8.502418518066406 L 9.226380348205566 9.252688407897949 C 9.031050682067871 9.483728408813477 8.69525146484375 9.53135871887207 8.442800521850586 9.364638328552246 L 7.902100563049316 9.007358551025391 C 7.590080738067627 9.219328880310059 7.251930713653564 9.390809059143066 6.894640922546387 9.517038345336914 L 6.873270988464355 10.17442893981934 C 6.863670825958252 10.47693824768066 6.627920627593994 10.72224903106689 6.327820777893066 10.74842834472656 L 5.348910808563232 10.83178901672363 C 5.04881477355957 10.85561847686768 4.774910449981689 10.65076923370361 4.715340614318848 10.35542869567871 L 4.579580783843994 9.683778762817383 C 4.231860637664795 9.617068290710449 3.893640518188477 9.505138397216797 3.572140693664551 9.355088233947754 L 3.081510543823242 9.81476879119873 C 2.862361431121826 10.02196884155273 2.521791458129883 10.03151893615723 2.290730476379395 9.836198806762695 L 1.540471076965332 9.202638626098633 C 1.309471130371094 9.007328987121582 1.2618408203125 8.671488761901855 1.428550720214844 8.419029235839844 L 1.802471160888672 7.854548454284668 C 1.609580993652344 7.571148872375488 1.449970245361328 7.268648624420166 1.328460693359375 6.949478626251221 L 0.6591911315917969 6.9280686378479 C 0.3567008972167969 6.91852855682373 0.1114206314086914 6.68272876739502 0.0852203369140625 6.382628440856934 L 0.001891136169433594 5.4037184715271 C -0.02199935913085938 5.103588581085205 0.1828708648681641 4.829688549041748 0.4782009124755859 4.770128726959229 L 1.097440719604492 4.643908500671387 C 1.159340858459473 4.279548645019531 1.266500473022461 3.924628734588623 1.416610717773438 3.586408615112305 L 0.9831209182739258 3.124358654022217 C 0.7759103775024414 2.905248641967773 0.7663803100585938 2.564648628234863 0.9616909027099609 2.33362865447998 L 1.595231056213379 1.578588485717773 C 1.790530204772949 1.347568511962891 2.126312255859375 1.29994010925293 2.378830909729004 1.466658592224121 L 2.874190807342529 1.795358657836914 C 3.198160648345947 1.561928749084473 3.553000926971436 1.376168251037598 3.929360866546631 1.240408897399902 L 3.948390483856201 0.6592483520507812 C 3.957910537719727 0.3567485809326172 4.193660736083984 0.1114387512207031 4.493810653686523 0.08524894714355469 L 5.472670555114746 0.001878738403320312 C 5.48857307434082 0.0006170272827148438 5.504359245300293 -1.9073486328125e-06 5.520086288452148 -1.9073486328125e-06 Z M 5.428946971893311 7.29715633392334 C 5.483606338500977 7.29715633392334 5.538776874542236 7.294824600219727 5.594220638275146 7.290078639984131 C 6.651650905609131 7.201998710632324 7.440050601959229 6.268348693847656 7.34950065612793 5.210808753967285 C 7.261401176452637 4.153328418731689 6.327727317810059 3.36491584777832 5.270210742950439 3.455438613891602 C 4.212750911712646 3.543558597564697 3.424380779266357 4.47722864151001 3.514900684356689 5.534748554229736 C 3.598381519317627 6.536776542663574 4.441070079803467 7.29715633392334 5.428946971893311 7.29715633392334 Z" stroke="none" fill="#fff"/>
          </g>
          <path id="Path_169850" data-name="Path 169850" d="M2.086,3.842A1.924,1.924,0,1,1,3.842,1.762,1.924,1.924,0,0,1,2.086,3.842Z" transform="matrix(0.951, 0.309, -0.309, 0.951, 5.619, 4.363)" fill="#fff"/>
        </g>
        <path id="Union_762" data-name="Union 762" d="M2.781.348A.348.348,0,1,1,3.129.7.347.347,0,0,1,2.781.348ZM1.39.348A.348.348,0,1,1,1.738.7.349.349,0,0,1,1.39.348ZM0,.348A.347.347,0,1,1,.347.7.348.348,0,0,1,0,.348Z" transform="translate(1.905 0.84)" fill="#fff"/>
      </g>
    </g>
  </g>
</svg>
