<svg xmlns="http://www.w3.org/2000/svg" xmlns:xlink="http://www.w3.org/1999/xlink" width="30" height="30" viewBox="0 0 30 30">
  <defs>
    <clipPath id="clip-path">
      <rect id="Rectangle_49473" data-name="Rectangle 49473" width="30" height="30" transform="translate(-4179 575)" fill="#fff" stroke="#707070" stroke-width="1"/>
    </clipPath>
    <linearGradient id="linear-gradient" x1="0.224" y1="-0.16" x2="0.172" y2="0.773" gradientUnits="objectBoundingBox">
      <stop offset="0" stop-color="#f8f8f8"/>
      <stop offset="1" stop-color="#dcdcdc"/>
    </linearGradient>
    <filter id="Path_158052-2" x="8.873" y="2.653" width="19.099" height="21.629" filterUnits="userSpaceOnUse">
      <feOffset dy="1" input="SourceAlpha"/>
      <feGaussianBlur stdDeviation="0.5" result="blur"/>
      <feFlood flood-color="#323a45" flood-opacity="0.149"/>
      <feComposite operator="in" in2="blur"/>
      <feComposite in="SourceGraphic"/>
    </filter>
    <linearGradient id="linear-gradient-2" x1="0.831" x2="0.772" y2="1" gradientUnits="objectBoundingBox">
      <stop offset="0" stop-color="#4086e5"/>
      <stop offset="1" stop-color="#2160b5"/>
    </linearGradient>
    <filter id="Path_158052-2-2" x="2.344" y="1.904" width="24.65" height="28.191" filterUnits="userSpaceOnUse">
      <feOffset dy="1" input="SourceAlpha"/>
      <feGaussianBlur stdDeviation="0.5" result="blur-2"/>
      <feFlood flood-opacity="0.2"/>
      <feComposite operator="in" in2="blur-2"/>
      <feComposite in="SourceGraphic"/>
    </filter>
  </defs>
  <g id="Mask_Group_1480" data-name="Mask Group 1480" transform="translate(4179 -575)" clip-path="url(#clip-path)">
    <g transform="matrix(1, 0, 0, 1, -4179, 575)" filter="url(#Path_158052-2)">
      <path id="Path_158052-2-3" data-name="Path 158052-2" d="M11.7,8.865.807.11A.5.5,0,0,0,.283.046.476.476,0,0,0,0,.479L.048,14.973a.5.5,0,0,0,.905.272L4.739,9.683l6.647.035A.488.488,0,0,0,11.85,9.4a.479.479,0,0,0-.154-.537Z" transform="matrix(0.97, -0.26, 0.26, 0.97, 10.68, 6.55)" stroke="#fff" stroke-width="0.5" fill="url(#linear-gradient)"/>
    </g>
    <g transform="matrix(1, 0, 0, 1, -4179, 575)" filter="url(#Path_158052-2-2)">
      <g id="Path_158052-2-4" data-name="Path 158052-2" transform="matrix(0.97, -0.26, 0.26, 0.97, 3.84, 6.71)" fill="url(#linear-gradient-2)">
        <path d="M 0.7653344869613647 21.1270809173584 C 0.6575844883918762 21.1270809173584 0.5688744783401489 21.04401969909668 0.5675844550132751 20.94193077087402 L 0.5000044703483582 0.6688803434371948 C 0.5001644492149353 0.6067803502082825 0.5391044616699219 0.5474503636360168 0.5992244482040405 0.5205903649330139 L 0.6017844676971436 0.5194503664970398 L 0.6043344736099243 0.5182803273200989 C 0.630684494972229 0.5061503648757935 0.6588844656944275 0.5000003576278687 0.6881544589996338 0.5000003576278687 C 0.7346044778823853 0.5000003576278687 0.7800944447517395 0.5159303545951843 0.8162244558334351 0.5448403358459473 L 16.05247497558594 12.79261016845703 L 16.08261489868164 12.81683921813965 C 16.11760330200195 12.86262130737305 16.12839508056641 12.9222297668457 16.10898399353027 12.97572994232178 C 16.08292388916016 13.04919052124023 16.0125846862793 13.09619998931885 15.93269443511963 13.09619998931885 L 6.632784366607666 13.04746055603027 L 6.366574287414551 13.04606056213379 L 6.216804504394531 13.26615047454834 L 0.921114444732666 21.0479907989502 C 0.8876644372940063 21.0967903137207 0.8297144770622253 21.12687110900879 0.7670444846153259 21.1270694732666 L 0.7653344869613647 21.1270809173584 Z" stroke="none"/>
        <path d="M 1.064292907714844 19.94886016845703 L 6.102984428405762 12.54467010498047 L 15.00402641296387 12.59133148193359 L 1.002224206924438 1.335872888565063 L 1.064292907714844 19.94886016845703 M 0.7653352022171021 21.62707901000977 C 0.3839747905731201 21.62707901000977 0.07236055284738541 21.32332801818848 0.06762446463108063 20.94824028015137 L 4.465332040126668e-06 0.6705503463745117 C 0.0006344653083942831 0.4095203280448914 0.1541644632816315 0.1717703342437744 0.3953244686126709 0.06406033784151077 C 0.636464536190033 -0.04689968004822731 0.9208945631980896 -0.01176964491605759 1.128604412078857 0.1544303447008133 L 16.3657341003418 12.40291023254395 L 16.36405372619629 12.39479064941406 C 16.58988380432129 12.57563018798828 16.6765251159668 12.87755012512207 16.5789852142334 13.14631080627441 C 16.48309516906738 13.4167594909668 16.22258758544922 13.59698486328125 15.92996406555176 13.59619045257568 L 6.630164623260498 13.54745006561279 L 1.334474444389343 21.32929039001465 C 1.206393957138062 21.51617240905762 0.9929797649383545 21.62710952758789 0.7653352022171021 21.62707901000977 Z" stroke="none" fill="#fff"/>
      </g>
    </g>
  </g>
</svg>
