<svg baseProfile="full" height="28" version="1.1" viewBox="0 0 250 28" width="250" xmlns="http://www.w3.org/2000/svg" xmlns:ev="http://www.w3.org/2001/xml-events" xmlns:xlink="http://www.w3.org/1999/xlink"><defs /><g><path d="M2.018808777429467 21.212121212121215V0.7314524555903894H15.47753396029258V3.9205851619644747H5.968652037617555V9.274817136886105H14.599791013584118V12.346917450365728H5.968652037617555V18.02298850574713H15.47753396029258V21.212121212121215Z M18.988505747126435 21.212121212121215V0.14629049111808H22.938349007314525V21.212121212121215Z M33.88087774294671 21.5632183908046Q31.657262277951936 21.5632183908046 29.94566353187043 20.612330198537098Q28.234064785788927 19.661442006269596 27.283176593521425 17.94984326018809Q26.33228840125392 16.238244514106587 26.33228840125392 13.985370950888194Q26.33228840125392 11.673981191222573 27.268547544409614 9.903866248693838Q28.20480668756531 8.1337513061651 29.916405433646815 7.124346917450367Q31.628004179728322 6.114942528735634 33.88087774294671 6.114942528735634Q36.07523510971787 6.114942528735634 37.71368861024034 7.0804597701149445Q39.352142110762806 8.045977011494255 40.259143155694886 9.684430512016721Q41.16614420062696 11.322884012539188 41.16614420062696 13.400208986415885Q41.16614420062696 13.69278996865204 41.16614420062696 14.058516196447233Q41.16614420062696 14.424242424242426 41.10762800417973 14.804597701149428H29.141065830721004V12.40543364681296H37.18704284221526Q37.09926854754441 10.971786833855802 36.17763845350052 10.152560083594569Q35.25600835945664 9.333333333333336 33.88087774294671 9.333333333333336Q32.886102403343784 9.333333333333336 32.03761755485894 9.786833855799376Q31.18913270637409 10.240334378265414 30.706374085684434 11.17659352142111Q30.22361546499478 12.112852664576804 30.22361546499478 13.546499477533963V14.394984326018811Q30.22361546499478 15.594566353187044 30.677115987460816 16.486938349007318Q31.130616509926856 17.379310344827587 31.94984326018809 17.862068965517246Q32.769070010449326 18.3448275862069 33.851619644723094 18.3448275862069Q34.93416927899687 18.3448275862069 35.650992685475444 17.876698014629053Q36.367816091954026 17.408568443051205 36.718913270637415 16.677115987460816H40.75653082549634Q40.34691745036573 18.052246603970744 39.38140020898642 19.164054336468133Q38.41588296760711 20.27586206896552 37.01149425287357 20.919540229885058Q35.607105538140026 21.5632183908046 33.88087774294671 21.5632183908046Z M50.762800417972834 28.000000000000004Q48.65621734587252 28.000000000000004 47.07628004179729 27.487983281086734Q45.49634273772205 26.97596656217346 44.6332288401254 25.93730407523511Q43.770114942528735 24.898641588296762 43.770114942528735 23.377220480668758Q43.770114942528735 22.35318704284222 44.29676071055381 21.44618599791014Q44.823406478578896 20.539184952978058 45.83281086729363 19.793103448275865Q46.84221525600836 19.04702194357367 48.36363636363637 18.52037617554859L49.85579937304075 20.451410658307214Q48.50992685475445 20.890282131661444 47.91013584117033 21.54858934169279Q47.310344827586206 22.20689655172414 47.310344827586206 22.967607105538143Q47.310344827586206 23.6405433646813 47.76384535005225 24.108672936259147Q48.21734587251829 24.576802507836994 48.9926854754441 24.796238244514107Q49.76802507836991 25.015673981191224 50.73354231974922 25.015673981191224Q51.669801462904914 25.015673981191224 52.357366771159874 24.7816091954023Q53.04493207941484 24.547544409613376 53.43991640543365 24.094043887147336Q53.83490073145246 23.6405433646813 53.83490073145246 23.026123301985372Q53.83490073145246 22.236154649947757 53.278996865203766 21.738766980146295Q52.72309299895507 21.24137931034483 51.05538140020899 21.124346917450367Q49.5632183908046 21.007314524555905 48.407523510971785 20.78787878787879Q47.25182863113898 20.568443051201676 46.37408568443051 20.261233019853712Q45.49634273772205 19.95402298850575 44.896551724137936 19.57366771159875Q44.29676071055382 19.193312434691748 43.916405433646815 18.812957157784748V18.14002089864159L47.04702194357367 14.775339602925811L49.885057471264375 15.682340647857892L46.198537095088824 19.31034482758621L47.310344827586206 17.379310344827587Q47.63218390804598 17.554858934169282 47.93939393939394 17.715778474399166Q48.2466039707419 17.876698014629053 48.71473354231975 18.008359456635322Q49.1828631138976 18.14002089864159 49.943573667711604 18.257053291536053Q50.704284221525604 18.374085684430515 51.87460815047022 18.461859979101362Q53.80564263322884 18.637408568443053 55.0491118077325 19.193312434691748Q56.29258098223616 19.749216300940443 56.877742946708466 20.67084639498433Q57.46290491118078 21.592476489028215 57.46290491118078 22.938349007314528Q57.46290491118078 24.254963427377223 56.746081504702204 25.410658307210035Q56.02925809822362 26.566353187042843 54.53709508881923 27.283176593521425Q53.04493207941484 28.000000000000004 50.762800417972834 28.000000000000004ZM50.762800417972834 16.85266457680251Q48.91954022988506 16.85266457680251 47.588296760710556 16.135841170323932Q46.25705329153605 15.419017763845353 45.54022988505747 14.204806687565311Q44.823406478578896 12.990595611285269 44.823406478578896 11.49843260188088Q44.823406478578896 10.00626959247649 45.54022988505747 8.792058516196448Q46.25705329153605 7.5778474399164075 47.588296760710556 6.846394984326021Q48.91954022988506 6.114942528735634 50.762800417972834 6.114942528735634Q52.635318704284224 6.114942528735634 53.966562173458726 6.846394984326021Q55.297805642633236 7.5778474399164075 56.00000000000001 8.792058516196448Q56.70219435736678 10.00626959247649 56.70219435736678 11.49843260188088Q56.70219435736678 12.990595611285269 56.00000000000001 14.204806687565311Q55.297805642633236 15.419017763845353 53.966562173458726 16.135841170323932Q52.635318704284224 16.85266457680251 50.762800417972834 16.85266457680251ZM50.762800417972834 13.839080459770116Q51.90386624869384 13.839080459770116 52.60606060606061 13.253918495297807Q53.30825496342738 12.6687565308255 53.30825496342738 11.527690700104495Q53.30825496342738 10.386624869383493 52.60606060606061 9.786833855799376Q51.90386624869384 9.187042842215257 50.762800417972834 9.187042842215257Q49.650992685475444 9.187042842215257 48.93416927899686 9.786833855799376Q48.21734587251829 10.386624869383493 48.21734587251829 11.527690700104495Q48.21734587251829 12.6687565308255 48.93416927899686 13.253918495297807Q49.650992685475444 13.839080459770116 50.762800417972834 13.839080459770116ZM53.22048066875654 9.274817136886105 52.576802507836994 6.46603970741902H58.6332288401254V8.806687565308257Z M66.82549634273772 21.5632183908046Q64.98223615464995 21.5632183908046 63.78265412748172 20.963427377220484Q62.58307210031348 20.363636363636367 62.01253918495298 19.354231974921632Q61.442006269592476 18.3448275862069 61.442006269592476 17.11598746081505Q61.442006269592476 15.770114942528739 62.12957157784744 14.746081504702197Q62.8171368861024 13.722048066875654 64.20689655172414 13.136886102403345Q65.59665621734588 12.551724137931037 67.70323928944619 12.551724137931037H71.36050156739812Q71.36050156739812 11.469174503657264 71.06792058516197 10.752351097178686Q70.77533960292581 10.035527690700107 70.16091954022988 9.684430512016721Q69.54649947753396 9.333333333333336 68.52246603970742 9.333333333333336Q67.41065830721003 9.333333333333336 66.63531870428423 9.81609195402299Q65.85997910135842 10.298850574712645 65.68443051201672 11.293625914315571H61.851619644723094Q61.997910135841174 9.713688610240336 62.89028213166144 8.557993730407524Q63.78265412748171 7.402298850574715 65.2601880877743 6.758620689655174Q66.73772204806687 6.114942528735634 68.55172413793103 6.114942528735634Q70.62904911180773 6.114942528735634 72.15047021943573 6.817136886102405Q73.67189132706375 7.519331243469177 74.49111807732498 8.835945663531874Q75.3103448275862 10.152560083594569 75.3103448275862 12.08359456635319V21.212121212121215H71.97492163009404L71.53605015673982 18.959247648902824Q71.21421107628004 19.544409613375134 70.77533960292581 20.01253918495298Q70.33646812957159 20.48066875653083 69.75130616509927 20.831765935214214Q69.16614420062696 21.1828631138976 68.43469174503657 21.373040752351102Q67.70323928944619 21.5632183908046 66.82549634273772 21.5632183908046ZM67.76175548589342 18.52037617554859Q68.52246603970742 18.52037617554859 69.12225705329155 18.242424242424242Q69.72204806687566 17.964472309299897 70.16091954022988 17.48171368861024Q70.59979101358412 16.998955067920587 70.84848484848484 16.369905956112856Q71.09717868338558 15.740856844305123 71.18495297805643 15.009404388714735V14.98014629049112H68.17136886102404Q67.26436781609196 14.98014629049112 66.69383490073146 15.199582027168237Q66.12330198537096 15.419017763845353 65.85997910135842 15.82863113897597Q65.59665621734588 16.238244514106587 65.59665621734588 16.764890282131663Q65.59665621734588 17.350052246603973 65.85997910135842 17.730407523510976Q66.12330198537096 18.110762800417977 66.62068965517241 18.315569487983282Q67.11807732497388 18.52037617554859 67.76175548589342 18.52037617554859Z M78.99686520376176 21.212121212121215V6.46603970741902H82.478578892372L82.77115987460816 8.865203761755488Q83.44409613375132 7.6363636363636385 84.68756530825496 6.875653082549636Q85.93103448275862 6.114942528735634 87.65726227795193 6.114942528735634Q89.50052246603971 6.114942528735634 90.75862068965517 6.875653082549636Q92.01671891327064 7.6363636363636385 92.67502612330199 9.099268547544412Q93.33333333333334 10.562173458725185 93.33333333333334 12.698014629049114V21.212121212121215H89.41274817136886V13.078369905956116Q89.41274817136886 11.322884012539188 88.66666666666667 10.386624869383493Q87.92058516196448 9.450365726227798 86.36990595611286 9.450365726227798Q85.37513061650994 9.450365726227798 84.59979101358412 9.918495297805645Q83.82445141065831 10.386624869383493 83.38557993730407 11.249738766980148Q82.94670846394985 12.112852664576804 82.94670846394985 13.341692789968654V21.212121212121215Z M103.69070010449322 21.212121212121215Q102.1400208986416 21.212121212121215 100.98432601880879 20.72936259143156Q99.82863113897596 20.246603970741905 99.18495297805643 19.120167189132708Q98.5412748171369 17.993730407523515 98.5412748171369 16.033437826541277V9.772204806687567H96.02507836990596V6.46603970741902H98.5412748171369L98.98014629049112 2.4576802507836994H102.49111807732498V6.46603970741902H106.38244514106583V9.772204806687567H102.49111807732498V16.09195402298851Q102.49111807732498 17.086729362591434 102.92998955067921 17.467084639498434Q103.36886102403344 17.847439916405435 104.4221525600836 17.847439916405435H106.35318704284222V21.212121212121215Z M113.93103448275862 21.212121212121215 108.54754440961338 0.7314524555903894H112.76071055381401L116.33019853709509 16.73563218390805L120.54336468129571 0.7314524555903894H124.90282131661442L128.99895506792058 16.73563218390805L132.5977011494253 0.7314524555903894H136.84012539184954L131.31034482758622 21.212121212121215H126.59979101358411L122.67920585161964 6.290491118077327L118.6123301985371 21.212121212121215Z M146.5830721003135 21.5632183908046Q144.3594566353187 21.5632183908046 142.6478578892372 20.612330198537098Q140.9362591431557 19.661442006269596 139.98537095088818 17.94984326018809Q139.0344827586207 16.238244514106587 139.0344827586207 13.985370950888194Q139.0344827586207 11.673981191222573 139.9707419017764 9.903866248693838Q140.9070010449321 8.1337513061651 142.6185997910136 7.124346917450367Q144.3301985370951 6.114942528735634 146.5830721003135 6.114942528735634Q148.77742946708466 6.114942528735634 150.4158829676071 7.0804597701149445Q152.05433646812958 8.045977011494255 152.96133751306166 9.684430512016721Q153.86833855799375 11.322884012539188 153.86833855799375 13.400208986415885Q153.86833855799375 13.69278996865204 153.86833855799375 14.058516196447233Q153.86833855799375 14.424242424242426 153.8098223615465 14.804597701149428H141.84326018808778V12.40543364681296H149.88923719958203Q149.8014629049112 10.971786833855802 148.8798328108673 10.152560083594569Q147.95820271682342 9.333333333333336 146.5830721003135 9.333333333333336Q145.58829676071056 9.333333333333336 144.73981191222572 9.786833855799376Q143.89132706374087 10.240334378265414 143.4085684430512 11.17659352142111Q142.92580982236154 12.112852664576804 142.92580982236154 13.546499477533963V14.394984326018811Q142.92580982236154 15.594566353187044 143.3793103448276 16.486938349007318Q143.83281086729363 17.379310344827587 144.65203761755487 17.862068965517246Q145.4712643678161 18.3448275862069 146.55381400208987 18.3448275862069Q147.63636363636365 18.3448275862069 148.35318704284225 17.876698014629053Q149.07001044932082 17.408568443051205 149.4211076280042 16.677115987460816H153.45872518286313Q153.04911180773252 18.052246603970744 152.0835945663532 19.164054336468133Q151.11807732497388 20.27586206896552 149.71368861024035 20.919540229885058Q148.3092998955068 21.5632183908046 146.5830721003135 21.5632183908046Z M163.6698014629049 21.5632183908046Q161.65099268547544 21.5632183908046 160.0564263322884 20.568443051201676Q158.46185997910135 19.57366771159875 157.55485893416926 17.81818181818182Q156.6478578892372 16.062695924764892 156.6478578892372 13.868338557993733Q156.6478578892372 11.615464994775342 157.56948798328108 9.874608150470221Q158.49111807732498 8.1337513061651 160.11494252873564 7.124346917450367Q161.7387669801463 6.114942528735634 163.75757575757575 6.114942528735634Q165.337513061651 6.114942528735634 166.53709508881923 6.700104493207943Q167.73667711598748 7.285266457680253 168.46812957157786 8.367816091954024V0.14629049111808H172.41797283176595V21.212121212121215H168.9070010449321L168.46812957157786 19.193312434691748Q168.0292580982236 19.807732497387672 167.37095088819228 20.363636363636367Q166.71264367816093 20.91954022988506 165.80564263322884 21.241379310344833Q164.89864158829675 21.5632183908046 163.6698014629049 21.5632183908046ZM164.60606060606062 18.110762800417977Q165.77638453500523 18.110762800417977 166.6687565308255 17.569487983281093Q167.56112852664577 17.028213166144205 168.05851619644721 16.062695924764895Q168.55590386624868 15.097178683385582 168.55590386624868 13.839080459770116Q168.55590386624868 12.580982236154652 168.05851619644721 11.61546499477534Q167.56112852664577 10.649947753396031 166.6687565308255 10.108672936259145Q165.77638453500523 9.56739811912226 164.60606060606062 9.56739811912226Q163.49425287356323 9.56739811912226 162.58725182863114 10.108672936259145Q161.68025078369905 10.649947753396031 161.1682340647858 11.61546499477534Q160.65621734587253 12.580982236154652 160.65621734587253 13.809822361546502Q160.65621734587253 15.097178683385582 161.1682340647858 16.062695924764895Q161.68025078369905 17.028213166144205 162.57262277951935 17.569487983281093Q163.46499477533962 18.110762800417977 164.60606060606062 18.110762800417977Z M182.83385579937305 21.5632183908046Q180.81504702194357 21.5632183908046 179.22048066875652 20.568443051201676Q177.62591431556947 19.57366771159875 176.71891327063742 17.81818181818182Q175.81191222570533 16.062695924764892 175.81191222570533 13.868338557993733Q175.81191222570533 11.615464994775342 176.73354231974923 9.874608150470221Q177.6551724137931 8.1337513061651 179.27899686520377 7.124346917450367Q180.90282131661442 6.114942528735634 182.92163009404388 6.114942528735634Q184.50156739811914 6.114942528735634 185.70114942528738 6.700104493207943Q186.9007314524556 7.285266457680253 187.632183908046 8.367816091954024V0.14629049111808H191.58202716823408V21.212121212121215H188.0710553814002L187.632183908046 19.193312434691748Q187.19331243469173 19.807732497387672 186.53500522466038 20.363636363636367Q185.87669801462906 20.91954022988506 184.96969696969697 21.241379310344833Q184.06269592476488 21.5632183908046 182.83385579937305 21.5632183908046ZM183.77011494252872 18.110762800417977Q184.94043887147336 18.110762800417977 185.83281086729363 17.569487983281093Q186.7251828631139 17.028213166144205 187.22257053291537 16.062695924764895Q187.71995820271684 15.097178683385582 187.71995820271684 13.839080459770116Q187.71995820271684 12.580982236154652 187.22257053291537 11.61546499477534Q186.7251828631139 10.649947753396031 185.83281086729363 10.108672936259145Q184.94043887147336 9.56739811912226 183.77011494252872 9.56739811912226Q182.65830721003135 9.56739811912226 181.75130616509927 10.108672936259145Q180.84430512016718 10.649947753396031 180.33228840125392 11.61546499477534Q179.82027168234066 12.580982236154652 179.82027168234066 13.809822361546502Q179.82027168234066 15.097178683385582 180.33228840125392 16.062695924764895Q180.84430512016718 17.028213166144205 181.73667711598745 17.569487983281093Q182.62904911180775 18.110762800417977 183.77011494252872 18.110762800417977Z M195.53187042842214 21.212121212121215V6.46603970741902H199.48171368861023V21.212121212121215ZM197.521421107628 4.447230929989551Q196.46812957157783 4.447230929989551 195.78056426332287 3.81818181818182Q195.0929989550679 3.189132706374089 195.0929989550679 2.2236154649947757Q195.0929989550679 1.258098223615466 195.78056426332287 0.629049111807733Q196.46812957157783 0.0 197.521421107628 0.0Q198.60397074190178 0.0 199.29153605015674 0.629049111807733Q199.9791013584117 1.258098223615466 199.9791013584117 2.2236154649947757Q199.9791013584117 3.189132706374089 199.29153605015674 3.81818181818182Q198.60397074190178 4.447230929989551 197.521421107628 4.447230929989551Z M203.46081504702195 21.212121212121215V6.46603970741902H206.94252873563218L207.23510971786834 8.865203761755488Q207.90804597701148 7.6363636363636385 209.15151515151513 6.875653082549636Q210.3949843260188 6.114942528735634 212.12121212121212 6.114942528735634Q213.96447230929988 6.114942528735634 215.22257053291537 6.875653082549636Q216.48066875653083 7.6363636363636385 217.13897596656216 9.099268547544412Q217.7972831765935 10.562173458725185 217.7972831765935 12.698014629049114V21.212121212121215H213.87669801462906V13.078369905956116Q213.87669801462906 11.322884012539188 213.13061650992685 10.386624869383493Q212.38453500522465 9.450365726227798 210.83385579937303 9.450365726227798Q209.83908045977012 9.450365726227798 209.0637408568443 9.918495297805645Q208.2884012539185 10.386624869383493 207.84952978056427 11.249738766980148Q207.41065830721004 12.112852664576804 207.41065830721004 13.341692789968654V21.212121212121215Z M227.86206896551727 28.000000000000004Q225.75548589341693 28.000000000000004 224.1755485893417 27.487983281086734Q222.59561128526647 26.97596656217346 221.7324973876698 25.93730407523511Q220.86938349007315 24.898641588296762 220.86938349007315 23.377220480668758Q220.86938349007315 22.35318704284222 221.39602925809822 21.44618599791014Q221.9226750261233 20.539184952978058 222.93207941483803 19.793103448275865Q223.94148380355279 19.04702194357367 225.46290491118077 18.52037617554859L226.95506792058518 20.451410658307214Q225.60919540229887 20.890282131661444 225.00940438871476 21.54858934169279Q224.40961337513062 22.20689655172414 224.40961337513062 22.967607105538143Q224.40961337513062 23.6405433646813 224.86311389759666 24.108672936259147Q225.3166144200627 24.576802507836994 226.09195402298852 24.796238244514107Q226.86729362591433 25.015673981191224 227.83281086729363 25.015673981191224Q228.76907001044933 25.015673981191224 229.4566353187043 24.7816091954023Q230.14420062695928 24.547544409613376 230.53918495297808 24.094043887147336Q230.93416927899688 23.6405433646813 230.93416927899688 23.026123301985372Q230.93416927899688 22.236154649947757 230.3782654127482 21.738766980146295Q229.82236154649948 21.24137931034483 228.1546499477534 21.124346917450367Q226.66248693834902 21.007314524555905 225.50679205851623 20.78787878787879Q224.3510971786834 20.568443051201676 223.47335423197495 20.261233019853712Q222.59561128526647 19.95402298850575 221.99582027168236 19.57366771159875Q221.39602925809822 19.193312434691748 221.01567398119124 18.812957157784748V18.14002089864159L224.1462904911181 14.775339602925811L226.9843260188088 15.682340647857892L223.29780564263325 19.31034482758621L224.40961337513062 17.379310344827587Q224.7314524555904 17.554858934169282 225.03866248693834 17.715778474399166Q225.3458725182863 17.876698014629053 225.81400208986418 18.008359456635322Q226.282131661442 18.14002089864159 227.04284221525603 18.257053291536053Q227.80355276907002 18.374085684430515 228.97387669801464 18.461859979101362Q230.90491118077327 18.637408568443053 232.1483803552769 19.193312434691748Q233.3918495297806 19.749216300940443 233.9770114942529 20.67084639498433Q234.5621734587252 21.592476489028215 234.5621734587252 22.938349007314528Q234.5621734587252 24.254963427377223 233.8453500522466 25.410658307210035Q233.12852664576803 26.566353187042843 231.63636363636365 27.283176593521425Q230.14420062695928 28.000000000000004 227.86206896551727 28.000000000000004ZM227.86206896551727 16.85266457680251Q226.01880877742948 16.85266457680251 224.687565308255 16.135841170323932Q223.35632183908046 15.419017763845353 222.6394984326019 14.204806687565311Q221.9226750261233 12.990595611285269 221.9226750261233 11.49843260188088Q221.9226750261233 10.00626959247649 222.6394984326019 8.792058516196448Q223.35632183908046 7.5778474399164075 224.687565308255 6.846394984326021Q226.01880877742948 6.114942528735634 227.86206896551727 6.114942528735634Q229.73458725182866 6.114942528735634 231.06583072100315 6.846394984326021Q232.39707419017765 7.5778474399164075 233.09926854754443 8.792058516196448Q233.8014629049112 10.00626959247649 233.8014629049112 11.49843260188088Q233.8014629049112 12.990595611285269 233.09926854754443 14.204806687565311Q232.39707419017765 15.419017763845353 231.06583072100315 16.135841170323932Q229.73458725182866 16.85266457680251 227.86206896551727 16.85266457680251ZM227.86206896551727 13.839080459770116Q229.00313479623827 13.839080459770116 229.70532915360502 13.253918495297807Q230.4075235109718 12.6687565308255 230.4075235109718 11.527690700104495Q230.4075235109718 10.386624869383493 229.70532915360502 9.786833855799376Q229.00313479623827 9.187042842215257 227.86206896551727 9.187042842215257Q226.75026123301987 9.187042842215257 226.03343782654127 9.786833855799376Q225.3166144200627 10.386624869383493 225.3166144200627 11.527690700104495Q225.3166144200627 12.6687565308255 226.03343782654127 13.253918495297807Q226.75026123301987 13.839080459770116 227.86206896551727 13.839080459770116ZM230.31974921630095 9.274817136886105 229.6760710553814 6.46603970741902H235.7324973876698V8.806687565308257Z M244.97805642633227 21.5632183908046Q242.95924764890282 21.5632183908046 241.4670846394984 20.919540229885058Q239.97492163009403 20.27586206896552 239.1264367816092 19.13479623824452Q238.27795193312434 17.993730407523515 238.16091954022988 16.560083594566358H242.08150470219437Q242.22779519331243 17.11598746081505 242.57889237199583 17.56948798328109Q242.9299895506792 18.02298850574713 243.5151515151515 18.286311389759668Q244.10031347962382 18.549634273772206 244.91954022988506 18.549634273772206Q245.70950888192266 18.549634273772206 246.20689655172413 18.330198537095093Q246.7042842215256 18.110762800417977 246.95297805642633 17.730407523510976Q247.20167189132707 17.350052246603973 247.20167189132707 16.940438871473358Q247.20167189132707 16.326018808777434 246.85057471264366 15.989550679205855Q246.4994775339603 15.653082549634277 245.82654127481715 15.448275862068968Q245.15360501567397 15.243469174503659 244.18808777429467 15.038662486938351Q243.13479623824452 14.833855799373044 242.12539184952976 14.52664576802508Q241.11598746081503 14.219435736677118 240.3260188087774 13.75130616509927Q239.5360501567398 13.283176593521423 239.06792058516197 12.551724137931036Q238.5997910135841 11.82027168234065 238.5997910135841 10.737722048066878Q238.5997910135841 9.421107628004181 239.3019853709509 8.382445141065833Q240.00417972831767 7.343782654127484 241.35005224660398 6.729362591431559Q242.6959247648903 6.114942528735634 244.5977011494253 6.114942528735634Q247.26018808777428 6.114942528735634 248.8108672936259 7.314524555903868Q250.36154649947753 8.514106583072103 250.6541274817137 10.620689655172416H246.9383490073145Q246.76280041797284 9.94775339602926 246.16300940438873 9.552769070010452Q245.5632183908046 9.157784743991643 244.56844305120168 9.157784743991643Q243.5151515151515 9.157784743991643 242.95924764890282 9.538140020898645Q242.40334378265413 9.918495297805645 242.40334378265413 10.532915360501569Q242.40334378265413 10.942528735632186 242.76907001044933 11.264367816091955Q243.13479623824452 11.586206896551726 243.8077324973877 11.805642633228842Q244.48066875653083 12.025078369905959 245.44618599791013 12.229885057471266Q247.14315569487982 12.580982236154652 248.43051201671892 13.03448275862069Q249.717868338558 13.48798328108673 250.44932079414838 14.321839080459771Q251.18077324973876 15.155694879832813 251.18077324973876 16.73563218390805Q251.18077324973876 18.14002089864159 250.42006269592474 19.237199582027174Q249.65935214211075 20.334378265412752 248.26959247648904 20.948798328108676Q246.8798328108673 21.5632183908046 244.97805642633227 21.5632183908046Z " fill="rgb(0,0,0)" transform="translate(-2.018808777429467, 0)" /></g></svg>