<svg width="40" height="40" viewBox="0 0 40 40" fill="none" xmlns="http://www.w3.org/2000/svg">
<g id="_SegmentedPicker-option">
<rect x="1" y="1" width="38" height="38" rx="6" fill="white"/>
<rect x="0.75" y="0.75" width="38.5" height="38.5" rx="6.25" stroke="black" stroke-opacity="0.04" stroke-width="0.5"/>
<g id="Clip path group">
<mask id="mask0_2037_5174" style="mask-type:luminance" maskUnits="userSpaceOnUse" x="6" y="6" width="28" height="28">
<g id="clip-path">
<path id="Rectangle 19210" d="M33.7218 6.27734H6.27734V33.7218H33.7218V6.27734Z" fill="white"/>
</g>
</mask>
<g mask="url(#mask0_2037_5174)">
<g id="10Web Logo Icon">
<path id="Union 645" d="M19.7302 30.4222L9.58028 20.2084C9.4938 20.1207 9.44531 20.0024 9.44531 19.8792C9.44531 19.7561 9.4938 19.6378 9.58028 19.5501C9.77897 19.3504 10.0152 19.192 10.2753 19.0839C10.5354 18.9757 10.8143 18.9201 11.096 18.9201C11.3777 18.9201 11.6566 18.9757 11.9167 19.0839C12.1769 19.192 12.413 19.3504 12.6117 19.5501L19.675 26.6589C19.7626 26.7444 19.8801 26.7922 20.0025 26.7922C20.1249 26.7922 20.2425 26.7444 20.33 26.6589L24.3088 22.6595C24.5075 22.4598 24.7437 22.3014 25.0038 22.1933C25.2639 22.0851 25.5428 22.0295 25.8245 22.0295C26.1062 22.0295 26.3852 22.0851 26.6453 22.1933C26.9054 22.3014 27.1416 22.4598 27.3403 22.6595C27.3923 22.7014 27.4354 22.7535 27.4667 22.8125C27.4981 22.8716 27.5171 22.9363 27.5227 23.003C27.5282 23.0696 27.5202 23.1366 27.4991 23.2C27.478 23.2635 27.4442 23.3219 27.3998 23.3719L20.3885 30.4222C20.346 30.4649 20.2953 30.4987 20.2395 30.5216C20.1838 30.5444 20.124 30.5559 20.0637 30.5554C20.0021 30.5565 19.9408 30.5453 19.8835 30.5224C19.8263 30.4995 19.7742 30.4655 19.7302 30.4222ZM19.1997 23.8515C19.073 23.7328 18.9719 23.5894 18.9029 23.4301C18.8338 23.2708 18.7981 23.099 18.7981 22.9253C18.7981 22.7517 18.8338 22.5799 18.9029 22.4205C18.9719 22.2612 19.073 22.1178 19.1997 21.9991L20.801 20.3881C20.8636 20.2977 20.8924 20.1882 20.8823 20.0787C20.8722 19.9692 20.8239 19.8668 20.7458 19.7894L19.02 18.0571C18.7921 17.8024 18.6661 17.4727 18.6661 17.1309C18.6661 16.7891 18.7921 16.4594 19.02 16.2047L19.0806 16.1473C19.1978 16.02 19.34 15.9184 19.4984 15.8489C19.6568 15.7794 19.8279 15.7435 20.0009 15.7435C20.1739 15.7435 20.345 15.7794 20.5034 15.8489C20.6618 15.9184 20.804 16.02 20.9212 16.1473L24.4842 19.7298C24.5691 19.8166 24.6167 19.9332 24.6167 20.0546C24.6167 20.176 24.5691 20.2926 24.4842 20.3794L21.0403 23.8439C20.9233 23.9715 20.7811 24.0734 20.6227 24.1431C20.4643 24.2128 20.2931 24.2488 20.12 24.2488C19.9469 24.2488 19.7757 24.2128 19.6173 24.1431C19.4589 24.0734 19.3167 23.9715 19.1997 23.8439V23.8515ZM16.1683 20.8677C15.9384 20.614 15.811 20.2839 15.811 19.9415C15.811 19.5991 15.9384 19.269 16.1683 19.0153C16.2854 18.888 16.4277 18.7864 16.5861 18.7168C16.7445 18.6473 16.9156 18.6114 17.0885 18.6114C17.2615 18.6114 17.4326 18.6473 17.591 18.7168C17.7494 18.7864 17.8917 18.888 18.0088 19.0153L18.6043 19.6118C18.6872 19.6996 18.7334 19.8158 18.7334 19.9366C18.7334 20.0574 18.6872 20.1736 18.6043 20.2614L18.0088 20.8612C17.8913 20.9879 17.749 21.089 17.5906 21.1582C17.4323 21.2273 17.2613 21.263 17.0885 21.263C16.9158 21.263 16.7448 21.2273 16.5865 21.1582C16.4281 21.089 16.2857 20.9879 16.1683 20.8612V20.8677ZM27.3338 20.5061L20.2099 13.3421C20.1671 13.2988 20.1161 13.2643 20.0598 13.2408C20.0036 13.2173 19.9433 13.2052 19.8824 13.2052C19.8214 13.2052 19.7611 13.2173 19.7049 13.2408C19.6486 13.2643 19.5976 13.2988 19.5548 13.3421L15.5761 17.3404C15.3774 17.5401 15.1412 17.6985 14.8811 17.8067C14.6209 17.9148 14.342 17.9704 14.0603 17.9704C13.7786 17.9704 13.4997 17.9148 13.2396 17.8067C12.9795 17.6985 12.7433 17.5401 12.5446 17.3404C12.5032 17.2206 12.4925 17.0923 12.5135 16.9673C12.5345 16.8422 12.5865 16.7245 12.6648 16.6248L19.675 9.57771C19.7626 9.4922 19.8801 9.44434 20.0025 9.44434C20.1249 9.44434 20.2425 9.4922 20.33 9.57771L30.4248 19.7894C30.5093 19.8777 30.5566 19.9952 30.5566 20.1174C30.5566 20.2397 30.5093 20.3572 30.4248 20.4455L30.3652 20.5061C30.1665 20.7058 29.9303 20.8642 29.6702 20.9724C29.4101 21.0805 29.1312 21.1361 28.8495 21.1361C28.5678 21.1361 28.2889 21.0805 28.0288 20.9724C27.7687 20.8642 27.5325 20.7058 27.3338 20.5061Z" fill="black"/>
</g>
</g>
</g>
</g>
</svg>
