<svg width="38" height="38" viewBox="0 0 38 38" fill="none" xmlns="http://www.w3.org/2000/svg">
<g id="_SegmentedPicker-option">
<rect x="1" y="1" width="36" height="36" rx="6" fill="black"/>
<rect x="0.75" y="0.75" width="36.5" height="36.5" rx="6.25" stroke="black" stroke-opacity="0.04" stroke-width="0.5"/>
<g id="Clip path group">
<mask id="mask0_1360_10456" style="mask-type:luminance" maskUnits="userSpaceOnUse" x="6" y="6" width="26" height="26">
<g id="clip-path">
<path id="Rectangle 19210" d="M32 6H6V32H32V6Z" fill="white"/>
</g>
</mask>
<g mask="url(#mask0_1360_10456)">
<g id="10Web Logo Icon">
<path id="Union 645" d="M18.7436 28.8738L9.12786 19.1975C9.04593 19.1144 9 19.0024 9 18.8857C9 18.769 9.04593 18.657 9.12786 18.5739C9.3161 18.3847 9.53986 18.2346 9.78628 18.1322C10.0327 18.0297 10.2969 17.977 10.5638 17.977C10.8307 17.977 11.0949 18.0297 11.3413 18.1322C11.5878 18.2346 11.8115 18.3847 11.9998 18.5739L18.6913 25.3085C18.7743 25.3895 18.8856 25.4349 19.0016 25.4349C19.1175 25.4349 19.2289 25.3895 19.3118 25.3085L23.0812 21.5196C23.2694 21.3305 23.4932 21.1804 23.7396 21.0779C23.9861 20.9755 24.2503 20.9228 24.5172 20.9228C24.784 20.9228 25.0483 20.9755 25.2947 21.0779C25.5411 21.1804 25.7649 21.3305 25.9531 21.5196C26.0024 21.5594 26.0432 21.6087 26.0729 21.6646C26.1026 21.7205 26.1206 21.7819 26.1259 21.845C26.1312 21.9081 26.1236 21.9716 26.1036 22.0317C26.0836 22.0918 26.0516 22.1472 26.0095 22.1945L19.3672 28.8738C19.3269 28.9142 19.2789 28.9462 19.2261 28.9679C19.1733 28.9896 19.1166 29.0005 19.0595 28.9999C19.0011 29.001 18.9431 28.9904 18.8889 28.9687C18.8346 28.947 18.7852 28.9148 18.7436 28.8738ZM18.241 22.6489C18.1209 22.5365 18.0252 22.4006 17.9598 22.2496C17.8943 22.0987 17.8606 21.936 17.8606 21.7714C17.8606 21.6069 17.8943 21.4442 17.9598 21.2932C18.0252 21.1423 18.1209 21.0064 18.241 20.894L19.758 19.3678C19.8174 19.2822 19.8446 19.1784 19.8351 19.0746C19.8255 18.9709 19.7797 18.8739 19.7057 18.8006L18.0708 17.1595C17.8549 16.9182 17.7355 16.6058 17.7355 16.282C17.7355 15.9582 17.8549 15.6458 18.0708 15.4045L18.1282 15.3502C18.2392 15.2296 18.3739 15.1333 18.524 15.0675C18.6741 15.0016 18.8362 14.9676 19 14.9676C19.1639 14.9676 19.326 15.0016 19.4761 15.0675C19.6261 15.1333 19.7609 15.2296 19.8719 15.3502L23.2474 18.7442C23.3278 18.8264 23.3729 18.9368 23.3729 19.0519C23.3729 19.1669 23.3278 19.2773 23.2474 19.3596L19.9847 22.6417C19.8739 22.7626 19.7392 22.8591 19.5891 22.9252C19.439 22.9912 19.2768 23.0253 19.1129 23.0253C18.9489 23.0253 18.7867 22.9912 18.6366 22.9252C18.4865 22.8591 18.3518 22.7626 18.241 22.6417V22.6489ZM15.3691 19.8221C15.1513 19.5818 15.0307 19.269 15.0307 18.9447C15.0307 18.6203 15.1513 18.3076 15.3691 18.0672C15.4801 17.9466 15.6149 17.8503 15.7649 17.7845C15.915 17.7186 16.0771 17.6846 16.241 17.6846C16.4048 17.6846 16.5669 17.7186 16.717 17.7845C16.8671 17.8503 17.0018 17.9466 17.1128 18.0672L17.6769 18.6324C17.7555 18.7156 17.7992 18.8256 17.7992 18.9401C17.7992 19.0545 17.7555 19.1646 17.6769 19.2478L17.1128 19.816C17.0015 19.936 16.8666 20.0318 16.7166 20.0973C16.5666 20.1628 16.4046 20.1966 16.241 20.1966C16.0773 20.1966 15.9153 20.1628 15.7653 20.0973C15.6153 20.0318 15.4804 19.936 15.3691 19.816V19.8221ZM25.947 19.4796L19.198 12.6926C19.1574 12.6516 19.1091 12.6189 19.0559 12.5967C19.0026 12.5744 18.9455 12.5629 18.8877 12.5629C18.83 12.5629 18.7728 12.5744 18.7196 12.5967C18.6663 12.6189 18.618 12.6516 18.5775 12.6926L14.8081 16.4805C14.6198 16.6697 14.3961 16.8198 14.1497 16.9222C13.9032 17.0246 13.639 17.0774 13.3721 17.0774C13.1053 17.0774 12.841 17.0246 12.5946 16.9222C12.3482 16.8198 12.1244 16.6697 11.9362 16.4805C11.8969 16.367 11.8868 16.2454 11.9067 16.127C11.9266 16.0085 11.9759 15.897 12.05 15.8025L18.6913 9.12635C18.7743 9.04535 18.8856 9 19.0016 9C19.1175 9 19.2289 9.04535 19.3118 9.12635L28.8753 18.8006C28.9554 18.8842 29.0001 18.9955 29.0001 19.1113C29.0001 19.2272 28.9554 19.3385 28.8753 19.4221L28.8189 19.4796C28.6306 19.6687 28.4069 19.8189 28.1604 19.9213C27.914 20.0237 27.6498 20.0764 27.3829 20.0764C27.116 20.0764 26.8518 20.0237 26.6054 19.9213C26.359 19.8189 26.1352 19.6687 25.947 19.4796Z" fill="white"/>
</g>
</g>
</g>
</g>
</svg>
