<svg xmlns="http://www.w3.org/2000/svg" xmlns:xlink="http://www.w3.org/1999/xlink" width="30" height="30" viewBox="0 0 30 30">
  <defs>
    <clipPath id="clip-path">
      <rect id="Rectangle_49485" data-name="Rectangle 49485" width="30" height="30" fill="red"/>
    </clipPath>
    <linearGradient id="linear-gradient" x1="-0.001" y1="0.5" x2="1" y2="0.5" gradientUnits="objectBoundingBox">
      <stop offset="0" stop-color="#f8f8f8"/>
      <stop offset="1" stop-color="#f0f0f0"/>
    </linearGradient>
    <linearGradient id="linear-gradient-2" x1="-20.701" y1="8.205" x2="-20.701" y2="8.174" gradientUnits="objectBoundingBox">
      <stop offset="0" stop-color="#4086e5"/>
      <stop offset="1" stop-color="#2160b5"/>
    </linearGradient>
    <linearGradient id="linear-gradient-3" x1="0.209" y1="0.159" x2="0.861" y2="0.92" gradientUnits="objectBoundingBox">
      <stop offset="0" stop-color="#fff" stop-opacity="0.6"/>
      <stop offset="0.59" stop-color="#fff" stop-opacity="0.4"/>
      <stop offset="1" stop-color="#fff" stop-opacity="0.6"/>
    </linearGradient>
  </defs>
  <g id="Mask_Group_1484" data-name="Mask Group 1484" clip-path="url(#clip-path)">
    <g id="Group_96333" data-name="Group 96333" transform="translate(0.428 4.365)">
      <path id="Path_168908" data-name="Path 168908" d="M33.127,17.044H11.634a1.77,1.77,0,0,1-1.774-1.77h0V1.77A1.77,1.77,0,0,1,11.634,0H33.127A1.77,1.77,0,0,1,34.9,1.77h0v13.5a1.766,1.766,0,0,1-1.77,1.774Z" transform="translate(-5.634 0)" fill="url(#linear-gradient)"/>
      <path id="Path_168908-2" data-name="Path 168908" d="M28.171,21.954H6.64a1.77,1.77,0,0,1-1.77-1.77h0V6.663A1.77,1.77,0,0,1,6.64,4.91H28.154a1.77,1.77,0,0,1,1.787,1.753h0V20.184a1.77,1.77,0,0,1-1.77,1.77Z" transform="translate(-2.783 -2.806)" fill="#e4e4e4"/>
      <path id="Path_168908-3" data-name="Path 168908" d="M23.284,26.864H1.77A1.77,1.77,0,0,1,0,25.094H0V11.611A1.77,1.77,0,0,1,1.77,9.82H23.284a1.77,1.77,0,0,1,1.77,1.791h0v13.5a1.77,1.77,0,0,1-1.77,1.77Z" transform="translate(0 -5.611)" fill="url(#linear-gradient-2)"/>
      <path id="Path_169884" data-name="Path 169884" d="M22.429,27.937h-.643a.553.553,0,0,0-.081,0,4.971,4.971,0,0,1-1.873-.506,5.284,5.284,0,0,1-3-3.909c-.039-.206-.056-.429-.081-.617V22.2a4.976,4.976,0,0,1,.609-2.109,5.25,5.25,0,0,1,4.5-2.824,4.907,4.907,0,0,1,2.721.613,5.241,5.241,0,0,1,2.837,4.5,4.954,4.954,0,0,1-.617,2.734,5.271,5.271,0,0,1-3.767,2.751C22.827,27.894,22.617,27.911,22.429,27.937ZM21.1,20.574a.36.36,0,0,0-.339.381v3.266a.351.351,0,0,0,.176.334.334.334,0,0,0,.364-.03l2.619-1.633a.339.339,0,0,0,0-.6L21.31,20.66a1.715,1.715,0,0,0-.21-.086Z" transform="translate(-9.571 -9.86)" fill="url(#linear-gradient-3)"/>
    </g>
  </g>
</svg>
